<!-- 
  Bluesky Butterfly Logo
  A simplified butterfly icon representing Bluesky
  Used for social media attribution
-->
<svg width="20" height="20" viewBox="0 0 24 24" fill="none" xmlns="http://www.w3.org/2000/svg">
  <!-- Butterfly wings - simple geometric design -->
  <!-- Left wing -->
  <path d="M12 4C10 4 8 6 8 9c0 2 0 4 2 5l2-4h2V4z" fill="#1185FE"/>
  <!-- Right wing -->
  <path d="M12 4c2 0 4 2 4 5c0 2 0 4-2 5l-2-4h-2V4z" fill="#1185FE"/>
  <!-- Body -->
  <circle cx="12" cy="10" r="1.5" fill="#1185FE"/>
  <!-- Bottom wings (lighter) -->
  <path d="M10 14c-1 1-2 2-2 3c0 1 1 2 2 2c1 0 2-1 2-2v-3z" fill="#556DD3"/>
  <path d="M14 14c1 1 2 2 2 3c0 1-1 2-2 2c-1 0-2-1-2-2v-3z" fill="#556DD3"/>
</svg>
